<?xml version="1.0" encoding="utf-8"?>
<svg role="img" viewBox="0 0 24 24" xmlns="http://www.w3.org/2000/svg">
  <title>FakerJS</title>
  <path
     d="m 22.693383,10.972873 c 0.563456,1.22247 1.474586,3.77112 0.858842,5.73962 -2.179612,6.65975 -16.3974527,9.13707 -18.6385001,4.75079 -1.6799407,-3.35911 -1.9793935,-4.49149 -2.3714742,-7.32515 -0.3381121,-1.9089 0.5473725,-5.3305503 1.1778286,-5.9612803 2.2330056,-2.61339 3.79149,-3.60298 7.0480907,-4.39102 2.651891,-0.64175 5.878056,-0.31728 8.261865,1.28852 2.383807,1.6058 2.714239,3.66512 3.663348,5.8985203 z"
     style="fill:#ffffff" />
  <path
     d="m 18.424309,0.16994274 c -1.306069,0.23962 -2.492279,1.28037996 -3.552069,3.18027996 -1.466858,-0.40364 -4.961077,0.0122 -6.8843383,1.20768 -2.7111841,-2.0762 -5.811935,-1.19553 -5.811935,-1.19553 0,0 1.041979,0.18184 1.2913539,0.4201 -0.9617739,0.18955 -3.66073905,1.47315 -3.45631404,4.43118 0.411897,-0.0553 0.85176101,-0.28687 0.85176101,-0.28687 0,0 -0.78840201,1.10325 0.91203013,3.4883303 0.1319869,0.18513 0.742991,-1.27773 0.742991,-1.27773 0,0 -1.3493041,4.1574 2.1424629,11.55139 2.2407691,4.12069 16.0507634,2.80106 19.1633744,-4.5206 0.738002,-2.72381 -1.067241,-7.1859003 -1.247775,-7.4638803 0.911505,-1.08922 2.354415,-3.99028 0.541667,-6.46459 0.201411,0.0276 0.402972,0.0553 0.604493,0.0829 -0.611449,-1.22402 -1.753616,-2.45192996 -4.827478,-2.54713996 0.150982,-0.21473 0.302079,-0.42941 0.453058,-0.64413 -0.314083,-0.0293 -0.62188,-0.0167 -0.923282,0.0386 z M 22.227764,11.179643 c 0.536982,1.16504 1.405305,3.59395 0.81849,5.46997 -2.077209,6.34687 -15.6270703,8.70779 -17.7628293,4.52759 -1.6010141,-3.20129 -1.886398,-4.28048 -2.260057,-6.981 -0.3222271,-1.81922 0.5216549,-5.0801203 1.122491,-5.6812103 2.128095,-2.49061 3.613359,-3.4337 6.7169593,-4.18473 2.527299,-0.61159 5.601894,-0.30237 7.873707,1.22799 2.271812,1.53036 2.58672,3.49293 3.491239,5.6213903 z M 8.1701687,9.1921527 c -1.437838,0.23798 -2.792609,1.6085103 -3.344241,3.2306703 -0.707988,2.13196 -0.03258,3.64943 1.375346,4.05738 1.095515,0.31745 2.10127,-0.16753 2.636416,-0.95322 0.5350551,-0.78584 0.5480461,-1.43963 1.2461123,-2.48191 2.043533,-3.0512403 -0.6275522,-3.7598903 -0.9137732,-3.8259103 -0.3318061,-0.0765 -0.6680511,-0.0819 -0.9998601,-0.027 z m 6.9494643,-1.14034 c -1.370526,0.24283 -2.00228,1.31927 -2.00228,1.31927 -0.982181,1.8375103 0.698321,2.6240603 2.030774,3.4344503 1.332208,0.81033 1.723636,1.9671 3.707256,1.43868 1.303381,-0.34794 2.10379,-1.84098 1.061257,-3.6508 -0.749334,-1.3007203 -2.191625,-2.1701003 -3.452518,-2.4660603 -0.493391,-0.11581 -0.959033,-0.14383 -1.344489,-0.0755 z m 0.954563,1.72273 c 0.217876,-0.0425 0.453308,-0.0341 0.688534,0.0385 0.70138,0.2163303 1.096819,0.9139103 0.881936,1.5571303 -0.01799,0.0561 -0.04061,0.11064 -0.06786,0.16314 -0.08939,-0.43414 -0.429513,-0.81824 -0.918146,-0.9705 -0.640408,-0.19859 -1.315888,0.0702 -1.591496,0.60674 -0.14219,-0.68261 0.35341,-1.2675903 1.00703,-1.3949803 z M 7.7421217,11.611263 c 0.134083,-0.0229 0.268964,-0.0245 0.399458,-0.006 0.417579,0.0578 0.790231,0.31708 0.9478901,0.72753 -0.5234551,-0.30651 -1.2392111,-0.17495 -1.672364,0.33203 -0.3305341,0.38685 -0.4096091,0.89193 -0.2495671,1.30643 -0.561284,-0.3243 -0.833003,-1.19305 -0.2435029,-1.88436 0.2319889,-0.27201 0.5231029,-0.42497 0.8180859,-0.47523 z m 4.3007493,2.01965 c -0.64876,0.13846 -1.238426,0.4087 -1.301911,0.73555 -0.101572,0.52298 0.675643,1.39987 1.507419,1.39699 0.41849,-0.002 0.965415,-0.24424 1.466044,-0.8981 0.453809,-0.59255 0.365537,-1.13809 -0.311706,-1.29073 -0.07007,-0.0158 -0.146435,-0.0274 -0.229154,-0.0344 -0.330908,-0.028 -0.741437,0.008 -1.130692,0.0907 z m -0.09799,0.65759 c 0.44325,-0.0816 0.963118,-0.0961 1.068563,-0.0759 0.396891,0.0761 0.353139,0.42019 -0.09692,0.72787 -0.533381,0.36455 -1.065581,0.46261 -1.580514,-0.17323 -0.201009,-0.24836 0.165621,-0.39713 0.608871,-0.47876 z m 3.356345,1.29748 c -0.482681,1.59327 -1.888876,1.57223 -2.403445,1.08197 0,0 -1.258754,1.6023 -2.905886,0.30457 -6.1e-4,-1.2e-4 -0.0335,0.91956 0.94074,1.24373 0.116842,0.47132 0.768334,2.21348 2.428994,1.79353 1.511929,-0.38186 1.564287,-2.22386 1.407498,-2.60085 1.060648,-0.66393 0.532099,-1.82295 0.532099,-1.82295 z m -2.49429,2.08805 c 4.6e-4,2.5e-4 0.617873,0.32128 1.242248,0.0997 0.173801,1.94663 -2.090577,2.13823 -2.393647,0.45124 0.678613,-0.14417 1.151343,-0.55093 1.151399,-0.55098 z"
     style="fill:#000000" />
</svg>
