<svg width="443" height="122" viewBox="0 0 443 122" fill="none" xmlns="http://www.w3.org/2000/svg">
<path d="M32.4375 0.9375C33.5625 0.9375 34.5833 0.979167 35.5 1.0625C36.4167 1.10417 37.6667 1.1875 39.25 1.3125V15.8125C38.25 15.6875 36.5625 15.6042 34.1875 15.5625C31.8542 15.4792 30.2292 16 29.3125 17.125C28.4375 18.2083 28 19.4167 28 20.75C28 22.0833 28 24 28 26.5H39.6875V39.0625H28V94H10.25V39.0625H0.3125V26.5H10.0625V22.125C10.0625 14.8333 11.2917 9.8125 13.75 7.0625C16.3333 2.97917 22.5625 0.9375 32.4375 0.9375ZM87.5 60.875C86.375 61.5833 85.2292 62.1667 84.0625 62.625C82.9375 63.0417 81.375 63.4375 79.375 63.8125L75.375 64.5625C71.625 65.2292 68.9375 66.0417 67.3125 67C64.5625 68.625 63.1875 71.1458 63.1875 74.5625C63.1875 77.6042 64.0208 79.8125 65.6875 81.1875C67.3958 82.5208 69.4583 83.1875 71.875 83.1875C75.7083 83.1875 79.2292 82.0625 82.4375 79.8125C85.6875 77.5625 87.375 73.4583 87.5 67.5V60.875ZM76.6875 52.5625C79.9792 52.1458 82.3333 51.625 83.75 51C86.2917 49.9167 87.5625 48.2292 87.5625 45.9375C87.5625 43.1458 86.5833 41.2292 84.625 40.1875C82.7083 39.1042 79.875 38.5625 76.125 38.5625C71.9167 38.5625 68.9375 39.6042 67.1875 41.6875C65.9375 43.2292 65.1042 45.3125 64.6875 47.9375H47.5C47.875 41.9792 49.5417 37.0833 52.5 33.25C57.2083 27.25 65.2917 24.25 76.75 24.25C84.2083 24.25 90.8333 25.7292 96.625 28.6875C102.417 31.6458 105.312 37.2292 105.312 45.4375V76.6875C105.312 78.8542 105.354 81.4792 105.438 84.5625C105.562 86.8958 105.917 88.4792 106.5 89.3125C107.083 90.1458 107.958 90.8333 109.125 91.375V94H89.75C89.2083 92.625 88.8333 91.3333 88.625 90.125C88.4167 88.9167 88.25 87.5417 88.125 86C85.6667 88.6667 82.8333 90.9375 79.625 92.8125C75.7917 95.0208 71.4583 96.125 66.625 96.125C60.4583 96.125 55.3542 94.375 51.3125 90.875C47.3125 87.3333 45.3125 82.3333 45.3125 75.875C45.3125 67.5 48.5417 61.4375 55 57.6875C58.5417 55.6458 63.75 54.1875 70.625 53.3125L76.6875 52.5625ZM121 2.1875H138.5V51.8125L160.688 26.1875H182.75L158.938 52.25L183.688 94H162.188L145.875 64.875L138.5 72.5625V94H121V2.1875ZM219.312 38.75C215.188 38.75 211.979 40.0417 209.688 42.625C207.438 45.2083 206.021 48.7083 205.438 53.125H233.125C232.833 48.4167 231.396 44.8542 228.812 42.4375C226.271 39.9792 223.104 38.75 219.312 38.75ZM219.312 24.0625C224.979 24.0625 230.083 25.125 234.625 27.25C239.167 29.375 242.917 32.7292 245.875 37.3125C248.542 41.3542 250.271 46.0417 251.062 51.375C251.521 54.5 251.708 59 251.625 64.875H205C205.25 71.7083 207.396 76.5 211.438 79.25C213.896 80.9583 216.854 81.8125 220.312 81.8125C223.979 81.8125 226.958 80.7708 229.25 78.6875C230.5 77.5625 231.604 76 232.562 74H250.75C250.292 78.0417 248.188 82.1458 244.438 86.3125C238.604 92.9375 230.438 96.25 219.938 96.25C211.271 96.25 203.625 93.4583 197 87.875C190.375 82.2917 187.062 73.2083 187.062 60.625C187.062 48.8333 190.042 39.7917 196 33.5C202 27.2083 209.771 24.0625 219.312 24.0625ZM300.688 24.25C301.021 24.25 301.292 24.2708 301.5 24.3125C301.75 24.3125 302.271 24.3333 303.062 24.375V42.625C301.938 42.5 300.938 42.4167 300.062 42.375C299.188 42.3333 298.479 42.3125 297.938 42.3125C290.771 42.3125 285.958 44.6458 283.5 49.3125C282.125 51.9375 281.438 55.9792 281.438 61.4375V94H263.5V25.875H280.5V37.75C283.25 33.2083 285.646 30.1042 287.688 28.4375C291.021 25.6458 295.354 24.25 300.688 24.25Z" fill="#CE0401"/>
<path d="M313.25 75.375H332.188V94H313.25V75.375ZM367.812 17.75H350V1.3125H367.812V17.75ZM341.438 107.062C342.438 107.146 343.146 107.188 343.562 107.188C343.979 107.229 344.354 107.25 344.688 107.25C346.438 107.25 347.75 106.812 348.625 105.938C349.542 105.104 350 103.458 350 101V26.1875H367.812V101.312C367.812 108.188 366.458 113.271 363.75 116.562C361.042 119.854 355.729 121.5 347.812 121.5C347.271 121.5 346.458 121.479 345.375 121.438C344.333 121.396 343.021 121.354 341.438 121.312V107.062ZM398.688 72.25C399.062 75.4167 399.875 77.6667 401.125 79C403.333 81.375 407.417 82.5625 413.375 82.5625C416.875 82.5625 419.646 82.0417 421.688 81C423.771 79.9583 424.812 78.3958 424.812 76.3125C424.812 74.3125 423.979 72.7917 422.312 71.75C420.646 70.7083 414.458 68.9167 403.75 66.375C396.042 64.4583 390.604 62.0625 387.438 59.1875C384.271 56.3542 382.688 52.2708 382.688 46.9375C382.688 40.6458 385.146 35.25 390.062 30.75C395.021 26.2083 401.979 23.9375 410.938 23.9375C419.438 23.9375 426.354 25.6458 431.688 29.0625C437.062 32.4375 440.146 38.2917 440.938 46.625H423.125C422.875 44.3333 422.229 42.5208 421.188 41.1875C419.229 38.7708 415.896 37.5625 411.188 37.5625C407.312 37.5625 404.542 38.1667 402.875 39.375C401.25 40.5833 400.438 42 400.438 43.625C400.438 45.6667 401.312 47.1458 403.062 48.0625C404.812 49.0208 411 50.6667 421.625 53C428.708 54.6667 434.021 57.1875 437.562 60.5625C441.062 63.9792 442.812 68.25 442.812 73.375C442.812 80.125 440.292 85.6458 435.25 89.9375C430.25 94.1875 422.5 96.3125 412 96.3125C401.292 96.3125 393.375 94.0625 388.25 89.5625C383.167 85.0208 380.625 79.25 380.625 72.25H398.688Z" fill="black"/>
</svg>
